<?xml version="1.0" encoding="UTF-8"?>
<svg version="1.1" xmlns="http://www.w3.org/2000/svg" width="361" height="95">
<path d="M0 0 C2.21449479 2.04647902 3.62938119 3.90173073 4.93847656 6.61230469 C5.29075317 7.33392288 5.64302979 8.05554108 6.00598145 8.79902649 C6.38041382 9.5820665 6.75484619 10.36510651 7.140625 11.171875 C7.54019409 11.99467453 7.93976318 12.81747406 8.35144043 13.66520691 C9.65698431 16.35726901 10.95363691 19.05350647 12.25 21.75 C13.14564255 23.60254463 14.0418049 25.45483803 14.93847656 27.30688477 C16.75368445 31.05811437 18.56548018 34.81096497 20.375 38.56494141 C22.78701358 43.56502877 25.21839871 48.55543999 27.65625 53.54296875 C28.69403956 55.67033975 29.73136985 57.79793379 30.76843262 59.92565918 C31.42140152 61.26399776 32.07545 62.60181018 32.73059082 63.93908691 C33.63137837 65.77920271 34.52678399 67.62195026 35.421875 69.46484375 C35.92299805 70.492146 36.42412109 71.51944824 36.94042969 72.57788086 C38 75 38 75 38 77 C32.06 77 26.12 77 20 77 C18.88367188 74.76605469 17.76734375 72.53210938 16.6171875 70.23046875 C13.87179661 64.7378956 11.12181898 59.24764893 8.36700439 53.75979614 C6.70640431 50.45120179 5.04746551 47.14177572 3.38867188 43.83227539 C2.53617335 42.13238411 1.682967 40.43284766 0.82910156 38.73364258 C-0.42571119 36.23612824 -1.67794581 33.7373359 -2.9296875 31.23828125 C-3.3098703 30.48307693 -3.6900531 29.72787262 -4.08175659 28.94978333 C-9.0513299 19.01169578 -9.0513299 19.01169578 -8.87890625 15.61328125 C-7.71624588 12.15630441 -5.90227168 9.23136907 -3.9375 6.1875 C-3.56044922 5.59001953 -3.18339844 4.99253906 -2.79492188 4.37695312 C-1.87010434 2.91363423 -0.93597935 1.45620477 0 0 Z " fill="#EA514B" transform="translate(44,7)"/>
<path d="M0 0 C0.66 0.33 1.32 0.66 2 1 C1.625 3.9375 1.625 3.9375 1 7 C-1.70879335 8.35439668 -4.00933268 8.06501451 -7 8 C-7.33 9.32 -7.66 10.64 -8 12 C-2.39 12 3.22 12 9 12 C9.99 14.59875 10.98 17.1975 12 19.875 C12.31324219 20.69210449 12.62648438 21.50920898 12.94921875 22.35107422 C15 27.77777778 15 27.77777778 15 30 C15.66 30 16.32 30 17 30 C17.10957031 29.45472656 17.21914063 28.90945312 17.33203125 28.34765625 C18.51257658 22.7328675 20.1084379 17.41674601 22 12 C24.97 12 27.94 12 31 12 C28.79039262 19.76973052 26.10419502 27.24385999 23.125 34.75 C22.70347656 35.84699219 22.28195312 36.94398437 21.84765625 38.07421875 C19.56874624 43.82376235 17.57202341 48.74678646 13 53 C10.68359375 53.83984375 10.68359375 53.83984375 8.4375 53.9375 C7.69371094 53.98777344 6.94992187 54.03804687 6.18359375 54.08984375 C3.98787593 53.99950116 2.10430152 53.61554398 0 53 C0.33 50.69 0.66 48.38 1 46 C3.05078125 45.77213542 5.1015625 45.54427083 7.15234375 45.31640625 C9.01140229 45.18113386 9.01140229 45.18113386 10 44 C9.63551828 37.23770089 7.54689461 31.70125559 4.9375 25.5 C4.56044922 24.5821875 4.18339844 23.664375 3.79492188 22.71875 C2.87189036 20.4754329 1.94015476 18.23618189 1 16 C0.67 16.66 0.34 17.32 0 18 C-2.64 18 -5.28 18 -8 18 C-8 25.59 -8 33.18 -8 41 C-10.64 41 -13.28 41 -16 41 C-16 33.41 -16 25.82 -16 18 C-17.32 18 -18.64 18 -20 18 C-20 16.02 -20 14.04 -20 12 C-18.68 12 -17.36 12 -16 12 C-16.103125 10.7625 -16.20625 9.525 -16.3125 8.25 C-16.27833093 5.03810738 -16.14583857 4.20115665 -14.1875 1.5 C-9.52797338 -0.69271841 -5.07213875 -0.49822941 0 0 Z " fill="#EA514B" transform="translate(330,41)"/>
<path d="M0 0 C3.13050045 2.64085959 4.647747 5.97073335 6.37109375 9.59765625 C6.68990005 10.2562413 7.00870636 10.91482635 7.33717346 11.59336853 C8.37711567 13.74668377 9.40758717 15.90437205 10.4375 18.0625 C11.15140505 19.54766435 11.86560004 21.03268936 12.58007812 22.51757812 C31 60.88371079 31 60.88371079 31 63 C24.73 63 18.46 63 12 63 C9.81220887 58.35962046 7.62489357 53.71902224 5.4387207 49.07788086 C4.69712627 47.50386155 3.95527101 45.9299651 3.21313477 44.35620117 C2.85469482 43.59605713 2.49625488 42.83591309 2.12695312 42.05273438 C1.7716452 41.29944855 1.41633728 40.54616272 1.05026245 39.77005005 C0.34430281 38.26880808 -0.35890161 36.76626727 -1.05929565 35.26242065 C-2.56401218 32.03168855 -4.08790195 28.82739207 -5.70556641 25.65087891 C-9.11536333 18.82318578 -9.11536333 18.82318578 -8.5390625 14.7109375 C-8.03117187 13.81632812 -7.52328125 12.92171875 -7 12 C-6.43023437 10.94039062 -5.86046875 9.88078125 -5.2734375 8.7890625 C-4.64695312 7.74492187 -4.02046875 6.70078125 -3.375 5.625 C-2.74335937 4.56539062 -2.11171875 3.50578125 -1.4609375 2.4140625 C-0.73777344 1.21910156 -0.73777344 1.21910156 0 0 Z " fill="#EA514B" transform="translate(89,22)"/>
<path d="M0 0 C1.17369141 0.10054687 1.17369141 0.10054687 2.37109375 0.203125 C4.92212232 0.83974532 5.89857581 1.75971125 7.5625 3.75 C7.8925 3.275625 8.2225 2.80125 8.5625 2.3125 C11.58045626 -0.04527833 14.83413663 -0.38107527 18.5625 -0.25 C22.18340756 1.32430764 23.35505284 2.43882926 25.5625 5.75 C25.78955078 8.29370117 25.78955078 8.29370117 25.7578125 11.29296875 C25.75136719 12.36611328 25.74492187 13.43925781 25.73828125 14.54492188 C25.72152344 15.66447266 25.70476562 16.78402344 25.6875 17.9375 C25.67847656 19.06865234 25.66945313 20.19980469 25.66015625 21.36523438 C25.63656862 24.16036828 25.603653 26.95507845 25.5625 29.75 C22.9225 29.75 20.2825 29.75 17.5625 29.75 C17.2325 22.49 16.9025 15.23 16.5625 7.75 C11.04686516 8.07188877 11.04686516 8.07188877 9.5625 9.75 C9.40594973 11.23638992 9.31183057 12.72949127 9.24609375 14.22265625 C9.20419922 15.12177734 9.16230469 16.02089844 9.11914062 16.94726562 C9.07982422 17.89279297 9.04050781 18.83832031 9 19.8125 C8.95681641 20.76189453 8.91363281 21.71128906 8.86914062 22.68945312 C8.76270868 25.04278176 8.66206846 27.39637099 8.5625 29.75 C5.5925 29.75 2.6225 29.75 -0.4375 29.75 C-0.4375 22.49 -0.4375 15.23 -0.4375 7.75 C-6.09928605 8.04483343 -6.09928605 8.04483343 -7.7734375 10.265625 C-8.76790039 13.98608618 -8.90980124 17.66344368 -9.0625 21.5 C-9.12050781 22.68916016 -9.12050781 22.68916016 -9.1796875 23.90234375 C-9.273608 25.85119416 -9.35662822 27.80056451 -9.4375 29.75 C-12.0775 29.75 -14.7175 29.75 -17.4375 29.75 C-17.4375 20.18 -17.4375 10.61 -17.4375 0.75 C-13.77083333 0.75 -10.10416667 0.75 -6.4375 0.75 C-3.98972161 -0.4738892 -2.70359459 -0.266364 0 0 Z " fill="#EA514B" transform="translate(265.4375,52.25)"/>
<path d="M0 0 C0.721875 0.4125 1.44375 0.825 2.1875 1.25 C3.0846875 1.62125 3.0846875 1.62125 4 2 C5.68208635 1.02616054 7.34738161 0.02304948 9 -1 C12.88588268 -1.39651864 15.77193696 -1.30575932 19 1 C21.0695022 4.2548379 21.23588383 6.82692025 21.1953125 10.640625 C21.18886719 11.71054688 21.18242187 12.78046875 21.17578125 13.8828125 C21.15902344 14.99398437 21.14226562 16.10515625 21.125 17.25 C21.11597656 18.37664062 21.10695312 19.50328125 21.09765625 20.6640625 C21.07410658 23.44292365 21.0412168 26.2213539 21 29 C18.36 29 15.72 29 13 29 C12.505 18.605 12.505 18.605 12 8 C10.68 7.67 9.36 7.34 8 7 C5.79099232 8.49077412 5.10959124 9.47159818 4.56762695 12.0847168 C4.54144287 12.86500244 4.51525879 13.64528809 4.48828125 14.44921875 C4.45283203 15.29677734 4.41738281 16.14433594 4.38085938 17.01757812 C4.35830078 17.89865234 4.33574219 18.77972656 4.3125 19.6875 C4.26125977 21.02651367 4.26125977 21.02651367 4.20898438 22.39257812 C4.12654352 24.59492671 4.05738449 26.79687938 4 29 C1.36 29 -1.28 29 -4 29 C-4.33 21.74 -4.66 14.48 -5 7 C-10.51563484 7.32188877 -10.51563484 7.32188877 -12 9 C-12.15655027 10.48638992 -12.25066943 11.97949127 -12.31640625 13.47265625 C-12.35830078 14.37177734 -12.40019531 15.27089844 -12.44335938 16.19726562 C-12.50233398 17.61555664 -12.50233398 17.61555664 -12.5625 19.0625 C-12.60568359 20.01189453 -12.64886719 20.96128906 -12.69335938 21.93945312 C-12.79979132 24.29278176 -12.90043154 26.64637099 -13 29 C-15.97 29 -18.94 29 -22 29 C-22 19.43 -22 9.86 -22 0 C-19.36 0 -16.72 0 -14 0 C-13.67 0.66 -13.34 1.32 -13 2 C-12.34 1.484375 -11.68 0.96875 -11 0.4375 C-7.03122328 -1.46420551 -4.19440896 -1.07072465 0 0 Z " fill="#EA514B" transform="translate(220,53)"/>
<path d="M0 0 C2.375 1.75 2.375 1.75 3.4375 3.6875 C3.352595 6.4893649 2.20525029 7.70011968 0.375 9.75 C-0.305625 9.440625 -0.98625 9.13125 -1.6875 8.8125 C-5.04627242 7.59762487 -8.06341356 7.01382122 -11.625 6.75 C-12.615 7.41 -13.605 8.07 -14.625 8.75 C-14.295 9.74 -13.965 10.73 -13.625 11.75 C-10.52568239 12.87532521 -7.4490071 13.76945202 -4.25976562 14.59179688 C-0.47875429 15.69690185 1.28330355 16.63975984 3.828125 19.69921875 C5.71779602 23.42606993 5.89174589 25.61603291 5.375 29.75 C4.08824532 33.4672913 3.02550945 35.26211791 -0.125 37.625 C-6.59970784 39.70615609 -12.98854358 39.88979301 -19.1875 36.875 C-21.39491085 35.63591283 -22.81414731 34.56085269 -24.625 32.75 C-24.30634222 29.45720291 -23.07984649 27.88464912 -20.625 25.75 C-20.109375 26.018125 -19.59375 26.28625 -19.0625 26.5625 C-18.258125 26.954375 -17.45375 27.34625 -16.625 27.75 C-14.9234375 28.61625 -14.9234375 28.61625 -13.1875 29.5 C-9.75215088 31.08592769 -9.75215088 31.08592769 -6.6875 29.9375 C-6.006875 29.545625 -5.32625 29.15375 -4.625 28.75 C-4.625 27.43 -4.625 26.11 -4.625 24.75 C-5.74519531 24.37488281 -6.86539063 23.99976562 -8.01953125 23.61328125 C-9.49250867 23.09727005 -10.96514764 22.58029202 -12.4375 22.0625 C-13.17548828 21.81822266 -13.91347656 21.57394531 -14.67382812 21.32226562 C-18.21012867 20.05815819 -20.20641001 19.26829351 -22.609375 16.29296875 C-24.07724283 12.61765352 -24.33389168 9.64102768 -23.625 5.75 C-18.64869959 -2.72814144 -8.55449158 -2.94982468 0 0 Z " fill="#EA514B" transform="translate(154.625,44.25)"/>
<path d="M0 0 C2.64 0 5.28 0 8 0 C8.33 6.93 8.66 13.86 9 21 C13.60532389 22.45314664 13.60532389 22.45314664 16 21 C16.88639389 18.34081834 17.17989025 16.51935359 17.31640625 13.76953125 C17.35830078 12.96708984 17.40019531 12.16464844 17.44335938 11.33789062 C17.48267578 10.50451172 17.52199219 9.67113281 17.5625 8.8125 C17.60568359 7.96751953 17.64886719 7.12253906 17.69335938 6.25195312 C17.79931518 4.16815567 17.9001502 2.08409897 18 0 C20.64 0 23.28 0 26 0 C26 9.57 26 19.14 26 29 C22.66666667 29 19.33333333 29 16 29 C15.34 29.33 14.68 29.66 14 30 C8.65290626 30.3506291 5.37127693 30.44403637 1 27 C-0.3308911 24.33821779 -0.11268993 22.31260604 -0.09765625 19.3359375 C-0.09443359 18.21445313 -0.09121094 17.09296875 -0.08789062 15.9375 C-0.07951172 14.761875 -0.07113281 13.58625 -0.0625 12.375 C-0.05798828 11.19164063 -0.05347656 10.00828125 -0.04882812 8.7890625 C-0.03701467 5.85932493 -0.02054258 2.92968728 0 0 Z " fill="#EA514B" transform="translate(165,53)"/>
<path d="M0 0 C4.09688147 3.58955736 6.54765585 7.90802642 9.25 12.5625 C9.70890625 13.33013672 10.1678125 14.09777344 10.640625 14.88867188 C11.07375 15.62794922 11.506875 16.36722656 11.953125 17.12890625 C12.34661133 17.79994385 12.74009766 18.47098145 13.14550781 19.16235352 C14 21 14 21 14 24 C5.09 24 -3.82 24 -13 24 C-11.65173853 19.95521559 -10.72896847 17.21342318 -8.65234375 13.73046875 C-8.21212891 12.98732422 -7.77191406 12.24417969 -7.31835938 11.47851562 C-6.86267578 10.72248047 -6.40699219 9.96644531 -5.9375 9.1875 C-5.47794922 8.41212891 -5.01839844 7.63675781 -4.54492188 6.83789062 C-1.16502638 1.16502638 -1.16502638 1.16502638 0 0 Z " fill="#EA514B" transform="translate(13,61)"/>
<path d="M0 0 C2.64 0 5.28 0 8 0 C8 9.57 8 19.14 8 29 C5.36 29 2.72 29 0 29 C0 19.43 0 9.86 0 0 Z " fill="#EA514B" transform="translate(298,53)"/>
<path d="M0 0 C7.26 0 14.52 0 22 0 C18.51878051 6.47668742 14.96989357 12.81163649 11 19 C7.75177521 16.22312644 5.87816944 12.60938618 3.8125 8.9375 C3.44447266 8.30005859 3.07644531 7.66261719 2.69726562 7.00585938 C0 2.25687036 0 2.25687036 0 0 Z " fill="#EA514B" transform="translate(59,0)"/>
<path d="M0 0 C0.99 0.103125 1.98 0.20625 3 0.3125 C5 3.3125 5 3.3125 4.6875 5.9375 C4 8.3125 4 8.3125 3 9.3125 C0.0625 9.5 0.0625 9.5 -3 9.3125 C-5 7.3125 -5 7.3125 -5.25 4.8125 C-4.86676958 0.9801958 -3.75087075 0.3907157 0 0 Z " fill="#EA514B" transform="translate(302,40.6875)"/>
</svg>
